<svg width="15" height="13" viewBox="0 0 15 13" fill="none" xmlns="http://www.w3.org/2000/svg">
<path d="M4.99618 1.17H4.84745C4.92925 1.17 4.99618 1.1115 4.99618 1.04V1.17ZM4.99618 1.17H10.6482V1.04C10.6482 1.1115 10.7151 1.17 10.7969 1.17H10.6482V2.34H11.9868V1.04C11.9868 0.466375 11.4532 0 10.7969 0H4.84745C4.19114 0 3.65755 0.466375 3.65755 1.04V2.34H4.99618V1.17ZM14.3666 2.34H1.27775C0.948668 2.34 0.6828 2.57237 0.6828 2.86V3.38C0.6828 3.4515 0.749732 3.51 0.831538 3.51H1.9545L2.41373 12.0087C2.44348 12.5629 2.96778 13 3.60177 13H12.0426C12.6785 13 13.2009 12.5645 13.2307 12.0087L13.6899 3.51H14.8129C14.8947 3.51 14.9616 3.4515 14.9616 3.38V2.86C14.9616 2.57237 14.6957 2.34 14.3666 2.34ZM11.8995 11.83H3.74493L3.295 3.51H12.3494L11.8995 11.83Z" fill="#A238FF"/>
</svg>
