<svg width="182px" height="67px" viewBox="0 0 355 124" version="1.1" xmlns="http://www.w3.org/2000/svg" xmlns:xlink="http://www.w3.org/1999/xlink">
    <g id="Page-1" stroke="none" stroke-width="1" fill="none" fill-rule="evenodd">
        <g id="WEB" transform="translate(-109.000000, -260.000000)" fill="#ffffff">
            <g id="logos" transform="translate(109.000000, 39.000000)">
                <path style="color:#ffffff;" d="M57.5099824,229.283715 C89.2715559,229.283715 115.019965,255.036154 115.019965,286.803873 C115.019965,318.570418 89.2715559,344.322857 57.5099824,344.322857 C25.7484088,344.322857 0,318.570418 0,286.803873 C0,255.036154 25.7484088,229.283715 57.5099824,229.283715 Z M57.5099824,332.902628 C82.9661824,332.902628 103.601524,312.264057 103.601524,286.803873 C103.601524,261.343688 82.9661824,240.703943 57.5099824,240.703943 C49.9113794,240.703943 42.7434618,242.544326 36.4240059,245.802553 C39.8894382,244.918747 43.5215118,244.446914 47.2627235,244.446914 C71.4174794,244.446914 91.0001647,264.031491 91.0001647,288.191202 C91.0001647,312.092695 71.8329088,331.512952 48.0325588,331.924925 C51.09195,332.564599 54.2616529,332.902628 57.5099824,332.902628 Z M38.6971324,319.691314 C41.4267618,320.431927 44.2983882,320.829816 47.2627235,320.829816 C65.2846147,320.829816 79.8962294,306.217087 79.8962294,288.191202 C79.8962294,270.165316 65.2846147,255.552588 47.2627235,255.552588 C44.0097,255.552588 40.8693353,256.030289 37.9038265,256.916442 C54.0034765,258.347199 66.6259588,271.870721 66.6259588,288.344958 C66.6259588,304.546894 54.4165588,317.894359 38.6971324,319.691314 Z M14.6327382,288.497541 C14.7160588,299.720585 23.8343824,308.794561 35.0756206,308.794561 C46.3673206,308.794561 55.5220235,299.638426 55.5220235,288.344958 C55.5220235,277.050317 46.3673206,267.894181 35.0756206,267.894181 C23.80035,267.894181 14.6573824,277.023322 14.6303912,288.293315 C14.6303912,288.36139 14.6315647,288.429465 14.6327382,288.497541 Z M125.696383,275.984703 L125.696383,226.674668 L135.563419,226.674668 L135.563419,275.984703 L125.696383,275.984703 Z M150.140884,254.939557 L150.140884,275.984233 L140.754995,275.984233 L140.754995,239.156637 L143.024601,239.156637 L146.118025,242.732941 C147.630704,241.357349 149.344057,240.296313 151.258084,239.552179 C153.17211,238.806871 155.171804,238.43363 157.257166,238.43363 C159.504475,238.43363 161.623869,238.864383 163.617695,239.723541 C165.612695,240.583873 167.354213,241.763454 168.843422,243.265807 C170.333804,244.766986 171.508507,246.520513 172.367531,248.526389 C173.227728,250.532265 173.657239,252.669596 173.657239,254.939557 L173.657239,275.984233 L164.271351,275.984233 L164.271351,254.939557 C164.271351,253.977113 164.088281,253.065138 163.720966,252.20598 C163.354825,251.345648 162.850207,250.595645 162.208286,249.953624 C161.566366,249.311603 160.822348,248.806907 159.973886,248.440708 C159.125425,248.073336 158.220634,247.890237 157.257166,247.890237 C156.272575,247.890237 155.344313,248.073336 154.472381,248.440708 C153.601622,248.806907 152.845869,249.311603 152.203948,249.953624 C151.562028,250.595645 151.05741,251.345648 150.691269,252.20598 C150.323954,253.065138 150.140884,253.977113 150.140884,254.939557 Z M179.363409,275.983764 L179.363409,248.509488 L174.791338,248.509488 L174.791338,239.156168 L179.363409,239.156168 L179.363409,237.402641 C179.363409,235.132679 179.792921,233.001216 180.653118,231.007078 C181.512141,229.011766 182.692712,227.275844 184.193656,225.796965 C185.695774,224.318087 187.443159,223.149069 189.436985,222.289911 C191.430812,221.430753 193.563115,221 195.831547,221 L202.879765,221 L202.879765,230.35332 L195.831547,230.35332 C194.823485,230.35332 193.889356,230.53055 193.030332,230.886185 C192.170135,231.242994 191.424944,231.73478 190.794759,232.365064 C190.164574,232.996522 189.665824,233.740656 189.299682,234.599814 C188.932368,235.460145 188.749297,236.394421 188.749297,237.402641 L188.749297,239.156168 L200.266315,239.156168 L200.266315,248.509488 L188.749297,248.509488 L188.749297,275.983764 L179.363409,275.983764 Z M199.029767,257.243439 C199.029767,254.446481 199.521476,251.856096 200.50724,249.472284 C201.493005,247.088473 202.840217,245.030954 204.547702,243.299727 C206.255187,241.5685 208.249014,240.210514 210.529181,239.224595 C212.810523,238.23985 215.245596,237.746891 217.835576,237.746891 C220.447852,237.746891 222.894661,238.210507 225.176002,239.138914 C227.45617,240.067321 229.444129,241.385401 231.141052,243.093154 C232.836802,244.800906 234.178146,246.852557 235.163911,249.248105 C236.148502,251.643654 236.641384,254.309156 236.641384,257.243439 C236.641384,259.994622 236.148502,262.555664 235.163911,264.928912 C234.178146,267.300986 232.836802,269.352637 231.141052,271.083864 C229.444129,272.815091 227.45617,274.178945 225.176002,275.175428 C222.894661,276.173084 220.447852,276.671912 217.835576,276.671912 C215.245596,276.671912 212.810523,276.173084 210.529181,275.175428 C208.249014,274.178945 206.255187,272.815091 204.547702,271.083864 C202.840217,269.352637 201.493005,267.300986 200.50724,264.928912 C199.521476,262.555664 199.029767,259.994622 199.029767,257.243439 Z M209.274679,253.134269 C208.793531,254.3608 208.552958,255.730523 208.552958,257.243439 C208.552958,258.664805 208.793531,259.982885 209.274679,261.197678 C209.755826,262.412471 210.415349,263.467639 211.252076,264.360835 C212.087629,265.255205 213.073393,265.960606 214.208196,266.475866 C215.342999,266.9923 216.551734,267.249343 217.835576,267.249343 C219.119417,267.249343 220.328152,267.008732 221.462955,266.52751 C222.597758,266.046287 223.588217,265.370228 224.436679,264.499333 C225.28514,263.627264 225.955226,262.57327 226.448108,261.335003 C226.94099,260.097909 227.187431,258.734055 227.187431,257.243439 C227.187431,255.730523 226.94099,254.3608 226.448108,253.134269 C225.955226,251.907739 225.28514,250.853745 224.436679,249.971113 C223.588217,249.08848 222.597758,248.412422 221.462955,247.941763 C220.328152,247.472277 219.119417,247.237535 217.835576,247.237535 C216.551734,247.237535 215.342999,247.472277 214.208196,247.941763 C213.073393,248.412422 212.087629,249.08848 211.252076,249.971113 C210.415349,250.853745 209.755826,251.907739 209.274679,253.134269 Z M150.019423,325.785232 C151.990953,324.948375 153.698438,323.751187 155.141879,322.191323 L160.367606,330.788771 C158.075703,332.759435 155.509194,334.272352 152.666906,335.32752 C149.824617,336.381514 146.879059,336.909685 143.831403,336.909685 C141.492559,336.909685 139.240556,336.605693 137.075394,335.99771 C134.909059,335.3909 132.8812,334.530569 130.98947,333.419062 C129.098914,332.307556 127.373826,330.97187 125.815379,329.413179 C124.256932,327.854488 122.921456,326.12913 121.810123,324.238278 C120.698791,322.346253 119.838594,320.318077 119.231879,318.151402 C118.623991,315.984728 118.320047,313.732372 118.320047,311.394336 C118.320047,309.056299 118.623991,306.798075 119.231879,304.620838 C119.838594,302.442426 120.698791,300.408381 121.810123,298.51753 C122.921456,296.625504 124.256932,294.901319 125.815379,293.341455 C127.373826,291.782764 129.098914,290.448252 130.98947,289.335572 C132.8812,288.224066 134.909059,287.364908 137.075394,286.756924 C139.240556,286.148941 141.492559,285.846123 143.831403,285.846123 C146.879059,285.846123 149.824617,286.367252 152.666906,287.410682 C155.509194,288.45294 158.075703,289.971724 160.367606,291.967037 L155.141879,300.563311 C153.698438,299.00462 151.990953,297.806259 150.019423,296.969402 C148.047894,296.132544 145.984829,295.714703 143.831403,295.714703 C141.653332,295.714703 139.613738,296.126676 137.711447,296.95297 C135.809156,297.77809 134.147438,298.895465 132.726294,300.305095 C131.30515,301.714724 130.182082,303.376702 129.357091,305.291028 C128.530926,307.205354 128.119017,309.239399 128.119017,311.394336 C128.119017,313.549273 128.530926,315.572755 129.357091,317.463606 C130.182082,319.354458 131.30515,321.011741 132.726294,322.433108 C134.147438,323.8533 135.809156,324.977718 137.711447,325.802838 C139.613738,326.627958 141.653332,327.039932 143.831403,327.039932 C145.984829,327.039932 148.047894,326.62209 150.019423,325.785232 Z M190.932531,302.952874 C192.628281,304.660626 193.969625,306.712277 194.95539,309.107825 C195.941155,311.503374 196.434037,314.168876 196.434037,317.103159 C196.434037,319.853169 195.941155,322.415385 194.95539,324.788632 C193.969625,327.160707 192.628281,329.212357 190.932531,330.943584 C189.236781,332.673637 187.247649,334.037492 184.967481,335.035148 C182.687314,336.032804 180.240505,336.530458 177.627055,336.530458 C175.037075,336.530458 172.602002,336.032804 170.321834,335.035148 C168.040493,334.037492 166.046666,332.673637 164.339181,330.943584 C162.631696,329.212357 161.284484,327.160707 160.299893,324.788632 C159.314128,322.415385 158.821246,319.853169 158.821246,317.103159 C158.821246,314.306201 159.314128,311.715816 160.299893,309.332005 C161.284484,306.94702 162.631696,304.889501 164.339181,303.159447 C166.046666,301.428221 168.040493,300.070235 170.321834,299.084316 C172.602002,298.098397 175.037075,297.605437 177.627055,297.605437 C180.240505,297.605437 182.687314,298.070227 184.967481,298.998635 C187.247649,299.927042 189.236781,301.245121 190.932531,302.952874 Z M186.239587,321.194723 C186.732469,319.956456 186.978911,318.592601 186.978911,317.103159 C186.978911,315.590243 186.732469,314.22052 186.239587,312.993989 C185.746705,311.767459 185.076619,310.712291 184.228158,309.829659 C183.379696,308.947027 182.389237,308.270968 181.254434,307.801483 C180.119631,307.330824 178.910896,307.096081 177.627055,307.096081 C176.343214,307.096081 175.134478,307.330824 173.999675,307.801483 C172.866046,308.270968 171.880281,308.947027 171.043555,309.829659 C170.206828,310.712291 169.547305,311.767459 169.066158,312.993989 C168.585011,314.22052 168.344437,315.590243 168.344437,317.103159 C168.344437,318.524526 168.585011,319.842605 169.066158,321.057398 C169.547305,322.272192 170.206828,323.326186 171.043555,324.220555 C171.880281,325.114925 172.866046,325.819153 173.999675,326.335586 C175.134478,326.850846 176.343214,327.109063 177.627055,327.109063 C178.910896,327.109063 180.119631,326.868452 181.254434,326.38723 C182.389237,325.906007 183.379696,325.229949 184.228158,324.35788 C185.076619,323.486985 185.746705,322.43299 186.239587,321.194723 Z M226.756159,303.124823 C228.246542,304.626002 229.421245,306.379529 230.280268,308.385405 C231.139292,310.391281 231.569977,312.529786 231.569977,314.798573 L231.569977,335.843249 L222.184089,335.843249 L222.184089,314.798573 C222.184089,313.836129 221.999845,312.925327 221.633704,312.064996 C221.266389,311.205838 220.762945,310.454661 220.121024,309.81264 C219.479104,309.170619 218.733912,308.667096 217.885451,308.299724 C217.038162,307.933525 216.132198,307.749253 215.169904,307.749253 C214.184139,307.749253 213.255877,307.933525 212.385118,308.299724 C211.514359,308.667096 210.757433,309.170619 210.115512,309.81264 C209.473592,310.454661 208.970148,311.205838 208.602833,312.064996 C208.236692,312.925327 208.052448,313.836129 208.052448,314.798573 L208.052448,335.843249 L198.666559,335.843249 L198.666559,299.015653 L200.936165,299.015653 L204.030762,302.591957 C205.543442,301.216365 207.256795,300.156502 209.170821,299.411195 C211.084848,298.665887 213.084542,298.29382 215.169904,298.29382 C217.416039,298.29382 219.536606,298.723399 221.530433,299.582557 C223.524259,300.442888 225.265777,301.623644 226.756159,303.124823 Z M259.091237,323.928418 C259.675654,323.252359 260.150934,322.501183 260.518249,321.676063 L267.393957,328.588059 C266.523199,329.825153 265.521004,330.937833 264.386201,331.923752 C263.251399,332.908497 262.02506,333.745354 260.707187,334.43315 C259.389313,335.120946 258.002201,335.642075 256.547025,335.99771 C255.091849,336.353345 253.595599,336.530576 252.060622,336.530576 C249.470643,336.530576 247.035569,336.043485 244.754228,335.069303 C242.47406,334.095121 240.480234,332.759435 238.772749,331.06342 C237.06409,329.367405 235.718051,327.383829 234.732287,325.115042 C233.746522,322.845081 233.25364,320.415495 233.25364,317.82511 C233.25364,315.004677 233.746522,312.368518 234.732287,309.916631 C235.718051,307.463571 237.06409,305.325065 238.772749,303.503463 C240.480234,301.680686 242.47406,300.241714 244.754228,299.18772 C247.035569,298.132552 249.470643,297.605554 252.060622,297.605554 C253.595599,297.605554 255.103584,297.800391 256.581057,298.190064 C258.059704,298.579736 259.469113,299.147813 260.810457,299.891948 C262.150628,300.637255 263.388701,301.54923 264.523504,302.626699 C265.658307,303.704168 266.638204,304.941261 267.463196,306.340327 L260.586313,313.25115 C260.242469,312.288705 259.773057,311.423679 259.176904,310.654897 C258.580751,309.887288 257.910666,309.239399 257.165475,308.712401 C256.421457,308.185404 255.612896,307.783994 254.742137,307.509346 C253.871378,307.233523 252.977149,307.096199 252.060622,307.096199 C250.776781,307.096199 249.568046,307.360284 248.433243,307.887281 C247.29844,308.414278 246.312675,309.153718 245.475949,310.105599 C244.640396,311.056307 243.980872,312.185419 243.499725,313.491761 C243.018578,314.799278 242.778004,316.242945 242.778004,317.82511 C242.778004,319.109152 243.018578,320.312208 243.499725,321.435451 C243.980872,322.558695 244.640396,323.544614 245.475949,324.393208 C246.312675,325.240629 247.29844,325.906125 248.433243,326.387347 C249.568046,326.868569 250.776781,327.109181 252.060622,327.109181 C252.977149,327.109181 253.859643,326.983593 254.708104,326.731245 C255.555393,326.478897 256.352219,326.117393 257.09741,325.647908 C257.842601,325.177249 258.506819,324.604477 259.091237,323.928418 Z M297.75152,302.264843 C298.896885,303.262499 299.90612,304.379874 300.776879,305.618142 L283.173938,326.83418 C283.540079,326.949204 283.907394,327.023147 284.273535,327.057185 C284.64085,327.092396 285.006991,327.108828 285.374306,327.108828 C286.290832,327.108828 287.173326,326.983241 288.021788,326.730893 C288.869076,326.478545 289.665903,326.118215 290.411094,325.647556 C291.156285,325.17807 291.820503,324.604125 292.40492,323.928066 C292.989338,323.252007 293.464617,322.500831 293.831932,321.675711 L300.707641,328.587707 C299.836882,329.825974 298.834688,330.937481 297.699885,331.9234 C296.565082,332.909319 295.338744,333.746176 294.02087,334.432798 C292.702997,335.120594 291.315885,335.642896 289.860709,335.997358 C288.405532,336.352993 286.909282,336.531397 285.374306,336.531397 C282.784326,336.531397 280.349253,336.049001 278.067911,335.086556 C275.787744,334.124112 273.793917,332.782558 272.086432,331.063068 C270.378947,329.344752 269.031735,327.297796 268.04597,324.925722 C267.060206,322.552474 266.567323,319.945657 266.567323,317.102924 C266.567323,314.190942 267.060206,311.532482 268.04597,309.125196 C269.031735,306.717911 270.378947,304.66626 272.086432,302.970245 C273.793917,301.274229 275.787744,299.954976 278.067911,299.016005 C280.349253,298.075861 282.784326,297.606376 285.374306,297.606376 C286.909282,297.606376 288.4114,297.789475 289.878311,298.155674 C291.345223,298.523046 292.737029,299.050043 294.054903,299.737839 C295.372776,300.425635 296.604982,301.268361 297.75152,302.264843 Z M277.053982,321.985571 L287.986582,307.474956 C287.551203,307.314157 287.121691,307.21087 286.698047,307.165096 C286.273229,307.119321 285.831982,307.095846 285.374306,307.095846 C284.090464,307.095846 282.881729,307.331763 281.746926,307.801248 C280.612123,308.270733 279.626359,308.942097 278.789632,309.812992 C277.954079,310.683887 277.294556,311.733187 276.813409,312.959717 C276.332261,314.185074 276.091688,315.566534 276.091688,317.102924 C276.091688,317.446822 276.108117,317.836495 276.143323,318.271943 C276.177356,318.70739 276.234859,319.148706 276.314659,319.595891 C276.394459,320.043076 276.491861,320.472655 276.606867,320.885802 C276.721873,321.297775 276.870911,321.665147 277.053982,321.985571 Z M319.032889,299.084433 L326.147998,299.084433 L326.147998,308.437753 L319.032889,308.437753 C318.047125,308.437753 317.118863,308.620852 316.248104,308.988224 C315.377345,309.354423 314.620419,309.859119 313.978498,310.50114 C313.336578,311.141988 312.833134,311.899033 312.465819,312.769928 C312.099678,313.640823 311.916607,314.56923 311.916607,315.555149 L311.916607,335.84278 L302.529545,335.84278 L302.529545,299.015184 L304.799151,299.015184 L307.893748,303.38257 C309.406428,302.006979 311.125648,300.947116 313.050236,300.201808 C314.975998,299.4565 316.969825,299.084433 319.032889,299.084433 Z M354.306367,308.437401 L340.072629,308.437401 L340.072629,319.371712 C340.072629,320.357631 340.255699,321.280169 340.623014,322.140501 C340.989155,322.999659 341.493773,323.750835 342.135694,324.392856 C342.777614,325.034877 343.533367,325.544269 344.404126,325.922205 C345.276058,326.301314 346.20432,326.490282 347.190085,326.490282 L354.306367,326.490282 L354.306367,335.843601 L347.190085,335.843601 C344.920479,335.843601 342.789349,335.412849 340.794349,334.553691 C338.800523,333.694533 337.053138,332.513777 335.552194,331.011425 C334.050076,329.510245 332.869505,327.762587 332.010482,325.768448 C331.151458,323.773136 330.720773,321.641673 330.720773,319.371712 L330.720773,308.437401 L330.718426,308.437401 L330.718426,299.084081 L330.720773,299.084081 L330.720773,284.366892 L340.072629,284.366892 L340.072629,299.084081 L354.306367,299.084081 L354.306367,308.437401 Z" id="logo-infoconcert---mono"></path>
            </g>
        </g>
    </g>
</svg>